<svg xmlns="http://www.w3.org/2000/svg" viewBox="0 0 512 512">

    <defs>
      <linearGradient id="bg" x1="0" y1="0" x2="1" y2="1">
        <stop offset="0%" stop-color="#05101c"/>
        <stop offset="100%" stop-color="#0a1b2c"/>
      </linearGradient>
      <filter id="shadow" x="-20%" y="-20%" width="140%" height="140%">
        <feDropShadow dx="0" dy="12" stdDeviation="18" flood-color="#081119" flood-opacity="0.28"/>
      </filter>
    </defs>
    <rect x="16" y="16" width="480" height="480" rx="116" fill="url(#bg)" filter="url(#shadow)"/>
    <ellipse cx="180" cy="90" rx="170" ry="88" fill="rgba(255,255,255,0.04)"/>
    
<path d="M82 201
C108 201, 110 157, 134 157
C161 157, 157 240, 188 240
C221 240, 216 122, 253 122
C292 122, 287 219, 321 219
C349 219, 352 172, 379 172
C402 172, 402 201, 430 201" fill="none" stroke="#dff6ff" stroke-width="26" stroke-linecap="round" stroke-linejoin="round"/>
<path d="M95 337 C165 330, 238 330, 315 336 C352 339, 384 338, 417 334" fill="none" stroke="#73d7ff" stroke-width="14" stroke-linecap="round"/>
<circle cx="372" cy="335" r="16" fill="#73d7ff"/>
</svg>